<svg xmlns="http://www.w3.org/2000/svg" viewBox="0 0 100 100" width="32" height="32">
  <defs>
    <linearGradient id="g1" x1="0%" y1="0%" x2="100%" y2="100%">
      <stop offset="0%" stop-color="#6366f1"/>
      <stop offset="100%" stop-color="#10b981"/>
    </linearGradient>
  </defs>
  <rect width="100" height="100" rx="22" fill="url(#g1)"/>
  <path d="M50 25 C35 25 25 35 25 45 C25 52 28 56 33 60 L33 70 C33 72 35 74 37 74 L63 74 C65 74 67 72 67 70 L67 60 C72 56 75 52 75 45 C75 35 65 25 50 25Z" fill="white" fill-opacity="0.95"/>
  <circle cx="50" cy="42" r="6" fill="url(#g1)" opacity="0.8"/>
  <path d="M40 56 L60 56" stroke="url(#g1)" stroke-width="3" stroke-linecap="round" opacity="0.6"/>
  <path d="M43 64 L57 64" stroke="url(#g1)" stroke-width="3" stroke-linecap="round" opacity="0.4"/>
</svg>
